<mxfile host="app.diagrams.net" modified="2024-06-25T18:21:58.423Z" agent="Mozilla/5.0 (Windows NT 10.0; Win64; x64) AppleWebKit/537.36 (KHTML, like Gecko) Chrome/126.0.0.0 Safari/537.36" version="24.6.3" etag="NWTj-1xMoKjTaebpugKK" type="github">
  <diagram name="PÃ¡gina-1" id="fvwpi1UHbtL6mfs34l7c">
    <mxGraphModel>
      <root>
        <mxCell id="0" />
        <mxCell id="1" parent="0" />
      </root>
    </mxGraphModel>
  </diagram>
</mxfile>
